<?xml version="1.0" encoding="UTF-8" standalone="no"?>
<svg xmlns:ffdec="https://www.free-decompiler.com/flash" xmlns:xlink="http://www.w3.org/1999/xlink" ffdec:objectType="shape" height="23.8px" width="12.5px" xmlns="http://www.w3.org/2000/svg">
  <g transform="matrix(1.0, 0.0, 0.0, 1.0, 6.2, 11.9)">
    <path d="M1.1 -9.9 Q3.45 -10.05 4.25 -8.55 4.4 -7.05 2.9 -5.6 L3.55 -1.35 2.4 -1.8 2.4 -0.6 3.3 0.55 3.05 1.35 4.3 1.9 3.55 2.45 1.3 6.05 Q2.4 6.8 2.45 8.3 2.25 9.2 0.7 9.9 -1.05 9.0 -0.75 7.85 -2.25 8.65 -3.25 8.1 -4.7 6.65 -4.15 5.15 L-1.45 4.95 Q0.75 2.65 1.3 0.0 0.35 -2.1 0.2 -4.95 -1.55 -5.25 -2.35 -6.05 -3.4 -7.85 -1.65 -9.2 0.2 -8.85 1.05 -7.3 0.25 -8.8 1.1 -9.9" fill="#dfdfca" fill-rule="evenodd" stroke="none"/>
    <path d="M6.1 -7.25 Q5.85 -5.95 5.05 -4.9 L5.55 -1.65 Q5.65 -0.95 5.25 -0.3 L5.2 -0.15 5.0 0.05 5.1 0.1 5.3 0.15 6.0 0.85 6.3 2.0 5.95 3.1 3.75 6.1 3.8 6.15 Q4.4 7.35 4.2 8.6 3.75 11.4 1.1 11.9 L0.3 11.85 -0.45 11.55 -0.9 11.25 -2.05 10.35 -2.55 10.3 Q-3.6 10.05 -4.3 9.5 L-4.25 9.55 Q-6.7 7.8 -6.1 4.75 -5.95 4.1 -5.45 3.65 -4.95 3.2 -4.3 3.15 L-2.4 3.0 Q-1.55 1.95 -1.0 0.6 L-0.95 0.65 -1.0 0.55 -1.65 -3.3 Q-2.85 -3.7 -3.75 -4.6 L-4.15 -5.2 Q-5.6 -8.25 -3.0 -10.65 L-2.05 -11.15 -1.0 -11.1 -0.6 -10.95 -0.5 -11.05 0.15 -11.65 0.95 -11.9 Q4.25 -12.15 5.9 -9.7 6.25 -9.2 6.25 -8.55 L6.1 -7.25 M1.1 -9.9 Q0.25 -8.8 1.05 -7.3 0.2 -8.85 -1.65 -9.2 -3.4 -7.85 -2.35 -6.05 -1.55 -5.25 0.2 -4.95 0.35 -2.1 1.3 0.0 0.75 2.65 -1.45 4.95 L-4.15 5.15 Q-4.7 6.65 -3.25 8.1 -2.25 8.65 -0.75 7.85 -1.05 9.0 0.7 9.9 2.25 9.2 2.45 8.3 2.4 6.8 1.3 6.05 L3.55 2.45 4.3 1.9 3.05 1.35 3.3 0.55 2.4 -0.6 2.4 -1.8 3.55 -1.35 2.9 -5.6 Q4.4 -7.05 4.25 -8.55 3.45 -10.05 1.1 -9.9" fill="#761414" fill-rule="evenodd" stroke="none"/>
  </g>
</svg>
