<?xml version="1.0" encoding="UTF-8" standalone="no"?>
<svg xmlns:ffdec="https://www.free-decompiler.com/flash" xmlns:xlink="http://www.w3.org/1999/xlink" ffdec:objectType="shape" height="25.3px" width="12.25px" xmlns="http://www.w3.org/2000/svg">
  <g transform="matrix(1.0, 0.0, 0.0, 1.0, 6.1, 12.65)">
    <path d="M6.15 -3.1 L5.2 2.85 5.9 8.55 Q6.0 9.35 5.5 10.0 L4.0 11.9 3.3 12.45 2.4 12.65 -2.3 12.65 -3.1 12.5 -3.8 11.95 -5.4 10.1 -5.8 9.4 -5.85 8.6 -5.25 3.2 -6.1 -3.3 Q-6.2 -4.05 -5.85 -4.65 L-3.5 -8.5 -3.5 -10.65 Q-3.5 -11.5 -2.9 -12.05 -2.35 -12.65 -1.5 -12.65 L1.2 -12.65 Q2.05 -12.65 2.65 -12.05 3.2 -11.5 3.2 -10.65 L3.2 -8.55 5.85 -4.5 Q6.25 -3.85 6.15 -3.1" fill="#787878" fill-rule="evenodd" stroke="none"/>
    <path d="M1.2 -7.95 L4.15 -3.4 3.85 -1.5 -3.85 -1.5 -4.15 -3.6 -1.5 -7.95 1.2 -7.95 M3.65 6.65 L3.9 8.75 2.4 10.65 -2.3 10.65 -3.9 8.8 -3.65 6.65 3.65 6.65" fill="url(#gradient0)" fill-rule="evenodd" stroke="none"/>
    <path d="M-1.5 -7.95 L-1.5 -10.65 1.2 -10.65 1.2 -7.95 -1.5 -7.95" fill="#206020" fill-rule="evenodd" stroke="none"/>
    <path d="M3.85 -1.5 L3.2 2.75 3.65 6.65 -3.65 6.65 -3.25 3.15 -3.85 -1.5 3.85 -1.5 M2.65 0.0 L1.3 0.0 -0.1 5.25 1.4 5.25 2.65 0.0 M-1.1 5.4 L0.05 0.0 -1.7 -0.1 -2.7 5.4 -1.1 5.4" fill="#206040" fill-rule="evenodd" stroke="none"/>
    <path d="M-1.1 5.4 L-2.7 5.4 -1.7 -0.1 0.05 0.0 -1.1 5.4" fill="#308f60" fill-rule="evenodd" stroke="none"/>
    <path d="M2.65 0.0 L1.4 5.25 -0.1 5.25 1.3 0.0 2.65 0.0" fill="#287750" fill-rule="evenodd" stroke="none"/>
    <path d="M-1.5 -7.95 L-1.5 -10.65 1.2 -10.65 1.2 -7.95 4.15 -3.4 3.85 -1.5 3.2 2.75 3.65 6.65 3.9 8.75 2.4 10.65 -2.3 10.65 -3.9 8.8 -3.65 6.65 -3.25 3.15 -3.85 -1.5 -4.15 -3.6 -1.5 -7.95 1.2 -7.95 M-3.85 -1.5 L3.85 -1.5 M-3.65 6.65 L3.65 6.65" fill="none" stroke="#cccccc" stroke-linecap="round" stroke-linejoin="round" stroke-opacity="0.2509804" stroke-width="1.0"/>
  </g>
  <defs>
    <radialGradient cx="0" cy="0" gradientTransform="matrix(0.0117, 0.0, 0.0, 0.0117, 0.0, 1.35)" gradientUnits="userSpaceOnUse" id="gradient0" r="819.2" spreadMethod="pad">
      <stop offset="0.0" stop-color="#cccccc" stop-opacity="0.5019608"/>
      <stop offset="1.0" stop-color="#ffffff" stop-opacity="0.3019608"/>
    </radialGradient>
  </defs>
</svg>
