<?xml version="1.0" encoding="UTF-8" standalone="no"?>
<svg xmlns:ffdec="https://www.free-decompiler.com/flash" xmlns:xlink="http://www.w3.org/1999/xlink" ffdec:objectType="shape" height="30.0px" width="66.0px" xmlns="http://www.w3.org/2000/svg">
  <g transform="matrix(1.0, 0.0, 0.0, 1.0, 15.0, 15.0)">
    <path d="M-14.15 5.05 L-13.55 6.5 -12.95 7.6 -13.55 6.5 -14.15 5.05" fill="url(#gradient0)" fill-rule="evenodd" stroke="none"/>
    <path d="M-14.15 5.05 L-15.0 0.35 -15.0 0.0 Q-15.0 -6.25 -10.65 -10.65 -6.25 -15.0 0.0 -15.0 L36.0 -15.0 Q42.2 -15.0 46.6 -10.65 51.0 -6.25 51.0 0.0 51.0 3.55 49.55 6.5 48.5 8.7 46.6 10.6 42.2 15.0 36.0 15.0 L0.0 15.0 Q-6.25 15.0 -10.65 10.6 L-12.95 7.6 -13.55 6.5 -14.15 5.05" fill="url(#gradient1)" fill-rule="evenodd" stroke="none"/>
  </g>
  <defs>
    <linearGradient gradientTransform="matrix(0.0, -0.0183, 0.0183, 0.0, 0.0, 0.0)" gradientUnits="userSpaceOnUse" id="gradient0" spreadMethod="pad" x1="-819.2" x2="819.2">
      <stop offset="0.0" stop-color="#000000" stop-opacity="0.0"/>
      <stop offset="0.6941176470588235" stop-color="#ff0000" stop-opacity="0.5019608"/>
      <stop offset="1.0" stop-color="#ffffff"/>
    </linearGradient>
    <linearGradient gradientTransform="matrix(0.0, -0.0183, 0.0183, 0.0, 0.0, 0.0)" gradientUnits="userSpaceOnUse" id="gradient1" spreadMethod="pad" x1="-819.2" x2="819.2">
      <stop offset="0.0" stop-color="#000000" stop-opacity="0.0"/>
      <stop offset="0.6941176470588235" stop-color="#ff0000"/>
      <stop offset="1.0" stop-color="#ffffff"/>
    </linearGradient>
  </defs>
</svg>
