<?xml version="1.0" encoding="UTF-8" standalone="no"?>
<svg xmlns:ffdec="https://www.free-decompiler.com/flash" xmlns:xlink="http://www.w3.org/1999/xlink" ffdec:objectType="shape" height="26.35px" width="25.0px" xmlns="http://www.w3.org/2000/svg">
  <g transform="matrix(1.0, 0.0, 0.0, 1.0, 11.4, 14.65)">
    <path d="M0.15 -10.65 L-0.5 -10.15 -1.35 -10.25 -1.85 -10.95 -1.75 -11.75 Q-1.5 -12.15 -1.05 -12.25 L-0.25 -12.15 0.25 -11.5 Q0.4 -11.05 0.15 -10.65" fill="url(#gradient0)" fill-rule="evenodd" stroke="none"/>
    <path d="M1.6 -8.1 Q1.5 -7.9 1.25 -7.85 L0.8 -7.9 0.55 -8.25 0.6 -8.7 0.95 -8.95 1.4 -8.9 1.65 -8.55 1.6 -8.1" fill="url(#gradient1)" fill-rule="evenodd" stroke="none"/>
    <path d="M8.35 -1.0 L7.85 -1.05 7.55 -1.45 7.65 -2.0 8.05 -2.3 8.6 -2.25 8.85 -1.8 8.8 -1.3 8.35 -1.0" fill="url(#gradient2)" fill-rule="evenodd" stroke="none"/>
    <path d="M10.95 -0.45 L11.35 0.15 Q11.5 0.6 11.3 0.9 L10.7 1.4 9.9 1.3 9.4 0.65 Q9.3 0.25 9.55 -0.05 L10.15 -0.55 10.95 -0.45" fill="url(#gradient3)" fill-rule="evenodd" stroke="none"/>
    <path d="M-2.65 -9.5 L-2.35 -9.05 Q-2.25 -8.75 -2.4 -8.5 L-2.85 -8.15 -3.4 -8.2 -3.75 -8.65 -3.65 -9.2 -3.2 -9.55 -2.65 -9.5" fill="url(#gradient4)" fill-rule="evenodd" stroke="none"/>
    <path d="M-5.3 -0.3 L-5.55 0.1 -5.6 0.1 -6.1 0.25 -6.5 -0.05 -6.55 -0.1 -6.65 -0.7 -6.3 -1.1 -5.8 -1.2 -5.3 -0.85 -5.3 -0.3" fill="url(#gradient5)" fill-rule="evenodd" stroke="none"/>
    <path d="M-0.15 -1.7 Q0.05 -1.4 -0.1 -1.05 L-0.3 -0.65 -0.5 -0.5 -1.2 -0.4 -1.65 -0.8 -1.7 -0.95 -1.8 -1.45 -1.4 -2.05 -0.65 -2.1 -0.15 -1.7" fill="url(#gradient6)" fill-rule="evenodd" stroke="none"/>
    <path d="M-1.65 1.6 Q-1.4 2.05 -1.6 2.6 L-1.7 3.0 -2.15 3.4 -3.25 3.55 -4.0 2.9 -4.15 2.55 -4.15 1.95 Q-4.0 1.35 -3.5 1.1 L-2.5 1.0 -1.65 1.6" fill="url(#gradient7)" fill-rule="evenodd" stroke="none"/>
    <path d="M-6.4 9.05 L-6.55 9.35 -6.9 9.55 -7.2 9.3 -7.35 9.0 -7.2 8.7 -6.9 8.5 -6.55 8.65 -6.4 9.05" fill="url(#gradient8)" fill-rule="evenodd" stroke="none"/>
    <path d="M-7.7 6.9 L-7.95 7.05 -8.25 6.9 -8.3 6.7 -8.2 6.4 -7.95 6.25 Q-7.8 6.25 -7.7 6.4 L-7.6 6.65 -7.7 6.9" fill="url(#gradient9)" fill-rule="evenodd" stroke="none"/>
    <path d="M-9.4 8.05 L-8.9 7.85 -8.35 8.05 -8.25 8.55 -8.4 9.0 -8.9 9.25 -9.35 9.0 -9.55 8.55 -9.4 8.05" fill="url(#gradient10)" fill-rule="evenodd" stroke="none"/>
    <path d="M8.3 2.4 L7.95 2.65 7.55 2.6 7.3 2.3 Q7.2 2.05 7.35 1.85 L7.7 1.65 8.1 1.65 8.35 2.05 8.3 2.4" fill="url(#gradient11)" fill-rule="evenodd" stroke="none"/>
    <path d="M5.05 7.15 L5.35 7.55 5.3 8.0 4.9 8.3 4.45 8.25 4.15 7.85 4.25 7.4 4.6 7.15 5.05 7.15" fill="url(#gradient12)" fill-rule="evenodd" stroke="none"/>
    <path d="M3.15 8.8 L3.4 8.65 3.7 8.7 3.9 8.95 3.85 9.25 3.6 9.45 3.3 9.4 3.1 9.15 Q3.05 8.95 3.15 8.8" fill="url(#gradient13)" fill-rule="evenodd" stroke="none"/>
    <path d="M6.1 9.2 L6.1 9.45 5.9 9.6 5.65 9.55 5.5 9.35 5.5 9.1 5.75 8.95 5.95 9.0 6.1 9.2" fill="url(#gradient14)" fill-rule="evenodd" stroke="none"/>
    <path d="M0.15 -10.65 Q0.4 -11.05 0.25 -11.5 L-0.25 -12.15 -1.05 -12.25 Q-1.5 -12.15 -1.75 -11.75 L-1.85 -10.95 -1.35 -10.25 -0.5 -10.15 0.15 -10.65 M1.6 -8.1 L1.65 -8.55 1.4 -8.9 0.95 -8.95 0.6 -8.7 0.55 -8.25 0.8 -7.9 1.25 -7.85 Q1.5 -7.9 1.6 -8.1 M2.7 -6.4 L-7.75 -7.8 0.6 -14.15 Q1.8 -12.6 2.35 -10.55 2.95 -8.4 2.7 -6.4 M-2.65 -9.5 L-3.2 -9.55 -3.65 -9.2 -3.75 -8.65 -3.4 -8.2 -2.85 -8.15 -2.4 -8.5 Q-2.25 -8.75 -2.35 -9.05 L-2.65 -9.5" fill="url(#gradient15)" fill-rule="evenodd" stroke="none"/>
    <path d="M2.55 -3.65 L2.6 -3.7 4.2 -3.95 -3.45 6.1 -4.25 5.45 -5.35 4.3 -6.65 2.4 -7.6 0.35 -8.2 -1.4 -8.45 -2.35 2.1 -3.65 2.55 -3.65 M-5.3 -0.3 L-5.3 -0.85 -5.8 -1.2 -6.3 -1.1 -6.65 -0.7 -6.55 -0.1 -6.5 -0.05 -6.1 0.25 -5.6 0.1 -5.55 0.1 -5.3 -0.3 M-0.15 -1.7 L-0.65 -2.1 -1.4 -2.05 -1.8 -1.45 -1.7 -0.95 -1.65 -0.8 -1.2 -0.4 -0.5 -0.5 -0.3 -0.65 -0.1 -1.05 Q0.05 -1.4 -0.15 -1.7 M-1.65 1.6 L-2.5 1.0 -3.5 1.1 Q-4.0 1.35 -4.15 1.95 L-4.15 2.55 -4.0 2.9 -3.25 3.55 -2.15 3.4 -1.7 3.0 -1.6 2.6 Q-1.4 2.05 -1.65 1.6" fill="url(#gradient16)" fill-rule="evenodd" stroke="none"/>
    <path d="M-6.4 9.05 L-6.55 8.65 -6.9 8.5 -7.2 8.7 -7.35 9.0 -7.2 9.3 -6.9 9.55 -6.55 9.35 -6.4 9.05 M-7.7 6.9 L-7.6 6.65 -7.7 6.4 Q-7.8 6.25 -7.95 6.25 L-8.2 6.4 -8.3 6.7 -8.25 6.9 -7.95 7.05 -7.7 6.9 M-9.4 8.05 L-9.55 8.55 -9.35 9.0 -8.9 9.25 -8.4 9.0 -8.25 8.55 -8.35 8.05 -8.9 7.85 -9.4 8.05 M-4.85 11.2 L-10.9 8.75 Q-10.45 7.65 -9.5 6.7 L-7.35 5.2 -4.85 11.2" fill="url(#gradient17)" fill-rule="evenodd" stroke="none"/>
    <path d="M8.35 -1.0 L8.8 -1.3 8.85 -1.8 8.6 -2.25 8.05 -2.3 7.65 -2.0 7.55 -1.45 7.85 -1.05 8.35 -1.0 M10.95 -0.45 L10.15 -0.55 9.55 -0.05 Q9.3 0.25 9.4 0.65 L9.9 1.3 10.7 1.4 11.3 0.9 Q11.5 0.6 11.35 0.15 L10.95 -0.45 M8.3 2.4 L8.35 2.05 8.1 1.65 7.7 1.65 7.35 1.85 Q7.2 2.05 7.3 2.3 L7.55 2.6 7.95 2.65 8.3 2.4 M5.95 3.6 L7.25 -5.95 13.1 1.6 Q11.7 2.75 9.8 3.25 L5.95 3.6" fill="url(#gradient18)" fill-rule="evenodd" stroke="none"/>
    <path d="M5.05 7.15 L4.6 7.15 4.25 7.4 4.15 7.85 4.45 8.25 4.9 8.3 5.3 8.0 5.35 7.55 5.05 7.15 M3.15 8.8 Q3.05 8.95 3.1 9.15 L3.3 9.4 3.6 9.45 3.85 9.25 3.9 8.95 3.7 8.7 3.4 8.65 3.15 8.8 M6.1 9.2 L5.95 9.0 5.75 8.95 5.5 9.1 5.5 9.35 5.65 9.55 5.9 9.6 6.1 9.45 6.1 9.2 M6.7 10.4 L0.85 9.65 5.5 6.05 Q6.2 6.9 6.5 8.1 6.8 9.3 6.7 10.4" fill="url(#gradient19)" fill-rule="evenodd" stroke="none"/>
    <path d="M2.7 -6.4 L-7.75 -7.8 0.6 -14.15 Q1.8 -12.6 2.35 -10.55 2.95 -8.4 2.7 -6.4 M2.55 -3.65 L2.6 -3.7 4.2 -3.95 -3.45 6.1 -4.25 5.45 -5.35 4.3 -6.65 2.4 -7.6 0.35 -8.2 -1.4 -8.45 -2.35 2.1 -3.65 2.55 -3.65 M-4.85 11.2 L-10.9 8.75 Q-10.45 7.65 -9.5 6.7 L-7.35 5.2 -4.85 11.2 M5.95 3.6 L7.25 -5.95 13.1 1.6 Q11.7 2.75 9.8 3.25 L5.95 3.6 M6.7 10.4 L0.85 9.65 5.5 6.05 Q6.2 6.9 6.5 8.1 6.8 9.3 6.7 10.4 Z" fill="none" stroke="#ffff00" stroke-linecap="round" stroke-linejoin="round" stroke-width="1.0"/>
  </g>
  <defs>
    <radialGradient cx="0" cy="0" gradientTransform="matrix(0.0018, 0.0, 0.0, 0.0018, -0.8, -11.2)" gradientUnits="userSpaceOnUse" id="gradient0" r="819.2" spreadMethod="pad">
      <stop offset="0.0" stop-color="#808000"/>
      <stop offset="1.0" stop-color="#aaaa00"/>
    </radialGradient>
    <radialGradient cx="0" cy="0" gradientTransform="matrix(0.001, 0.0, 0.0, 0.001, 1.1, -8.4)" gradientUnits="userSpaceOnUse" id="gradient1" r="819.2" spreadMethod="pad">
      <stop offset="0.0" stop-color="#555500"/>
      <stop offset="1.0" stop-color="#808000"/>
    </radialGradient>
    <radialGradient cx="0" cy="0" gradientTransform="matrix(0.0011, 0.0, 0.0, 0.0011, 8.2, -1.65)" gradientUnits="userSpaceOnUse" id="gradient2" r="819.2" spreadMethod="pad">
      <stop offset="0.0" stop-color="#808000"/>
      <stop offset="1.0" stop-color="#aaaa00"/>
    </radialGradient>
    <radialGradient cx="0" cy="0" gradientTransform="matrix(0.0017, 0.0, 0.0, 0.0017, 10.4, 0.45)" gradientUnits="userSpaceOnUse" id="gradient3" r="819.2" spreadMethod="pad">
      <stop offset="0.0" stop-color="#808000"/>
      <stop offset="1.0" stop-color="#aaaa00"/>
    </radialGradient>
    <radialGradient cx="0" cy="0" gradientTransform="matrix(0.0012, 0.0, 0.0, 0.0012, -3.05, -8.85)" gradientUnits="userSpaceOnUse" id="gradient4" r="819.2" spreadMethod="pad">
      <stop offset="0.0" stop-color="#808000"/>
      <stop offset="1.0" stop-color="#aaaa00"/>
    </radialGradient>
    <radialGradient cx="0" cy="0" gradientTransform="matrix(0.0012, 0.0, 0.0, 0.0012, -5.95, -0.5)" gradientUnits="userSpaceOnUse" id="gradient5" r="819.2" spreadMethod="pad">
      <stop offset="0.0" stop-color="#555500"/>
      <stop offset="1.0" stop-color="#808000"/>
    </radialGradient>
    <radialGradient cx="0" cy="0" gradientTransform="matrix(0.0015, 0.0, 0.0, 0.0015, -0.95, -1.25)" gradientUnits="userSpaceOnUse" id="gradient6" r="819.2" spreadMethod="pad">
      <stop offset="0.0" stop-color="#808000"/>
      <stop offset="1.0" stop-color="#aaaa00"/>
    </radialGradient>
    <radialGradient cx="0" cy="0" gradientTransform="matrix(0.0023, 0.0, 0.0, 0.0023, -2.85, 2.25)" gradientUnits="userSpaceOnUse" id="gradient7" r="819.2" spreadMethod="pad">
      <stop offset="0.0" stop-color="#808000"/>
      <stop offset="1.0" stop-color="#aaaa00"/>
    </radialGradient>
    <radialGradient cx="0" cy="0" gradientTransform="matrix(9.0E-4, 0.0, 0.0, 9.0E-4, -6.85, 9.05)" gradientUnits="userSpaceOnUse" id="gradient8" r="819.2" spreadMethod="pad">
      <stop offset="0.0" stop-color="#808000"/>
      <stop offset="1.0" stop-color="#aaaa00"/>
    </radialGradient>
    <radialGradient cx="0" cy="0" gradientTransform="matrix(7.0E-4, 0.0, 0.0, 7.0E-4, -7.95, 6.65)" gradientUnits="userSpaceOnUse" id="gradient9" r="819.2" spreadMethod="pad">
      <stop offset="0.0" stop-color="#555500"/>
      <stop offset="1.0" stop-color="#808000"/>
    </radialGradient>
    <radialGradient cx="0" cy="0" gradientTransform="matrix(0.0012, 0.0, 0.0, 0.0012, -8.9, 8.55)" gradientUnits="userSpaceOnUse" id="gradient10" r="819.2" spreadMethod="pad">
      <stop offset="0.0" stop-color="#808000"/>
      <stop offset="1.0" stop-color="#aaaa00"/>
    </radialGradient>
    <radialGradient cx="0" cy="0" gradientTransform="matrix(0.001, 0.0, 0.0, 0.001, 7.8, 2.15)" gradientUnits="userSpaceOnUse" id="gradient11" r="819.2" spreadMethod="pad">
      <stop offset="0.0" stop-color="#555500"/>
      <stop offset="1.0" stop-color="#808000"/>
    </radialGradient>
    <radialGradient cx="0" cy="0" gradientTransform="matrix(0.001, 0.0, 0.0, 0.001, 4.75, 7.7)" gradientUnits="userSpaceOnUse" id="gradient12" r="819.2" spreadMethod="pad">
      <stop offset="0.0" stop-color="#808000"/>
      <stop offset="1.0" stop-color="#aaaa00"/>
    </radialGradient>
    <radialGradient cx="0" cy="0" gradientTransform="matrix(7.0E-4, 0.0, 0.0, 7.0E-4, 3.5, 9.05)" gradientUnits="userSpaceOnUse" id="gradient13" r="819.2" spreadMethod="pad">
      <stop offset="0.0" stop-color="#808000"/>
      <stop offset="1.0" stop-color="#aaaa00"/>
    </radialGradient>
    <radialGradient cx="0" cy="0" gradientTransform="matrix(6.0E-4, 0.0, 0.0, 6.0E-4, 5.85, 9.3)" gradientUnits="userSpaceOnUse" id="gradient14" r="819.2" spreadMethod="pad">
      <stop offset="0.0" stop-color="#555500"/>
      <stop offset="1.0" stop-color="#808000"/>
    </radialGradient>
    <radialGradient cx="0" cy="0" gradientTransform="matrix(0.0079, 0.0, 0.0, 0.0079, -2.5, -10.25)" gradientUnits="userSpaceOnUse" id="gradient15" r="819.2" spreadMethod="pad">
      <stop offset="0.0" stop-color="#ffff00"/>
      <stop offset="1.0" stop-color="#808000"/>
    </radialGradient>
    <radialGradient cx="0" cy="0" gradientTransform="matrix(0.0098, 0.0, 0.0, 0.0098, -2.1, 1.1)" gradientUnits="userSpaceOnUse" id="gradient16" r="819.2" spreadMethod="pad">
      <stop offset="0.0" stop-color="#ffff00"/>
      <stop offset="1.0" stop-color="#808000"/>
    </radialGradient>
    <radialGradient cx="0" cy="0" gradientTransform="matrix(0.0052, 0.0, 0.0, 0.0052, -7.85, 8.2)" gradientUnits="userSpaceOnUse" id="gradient17" r="819.2" spreadMethod="pad">
      <stop offset="0.0" stop-color="#ffff00"/>
      <stop offset="1.0" stop-color="#808000"/>
    </radialGradient>
    <radialGradient cx="0" cy="0" gradientTransform="matrix(0.0081, 0.0, 0.0, 0.0081, 9.55, -1.15)" gradientUnits="userSpaceOnUse" id="gradient18" r="819.2" spreadMethod="pad">
      <stop offset="0.0" stop-color="#ffff00"/>
      <stop offset="1.0" stop-color="#808000"/>
    </radialGradient>
    <radialGradient cx="0" cy="0" gradientTransform="matrix(0.0049, 0.0, 0.0, 0.0049, 3.8, 8.25)" gradientUnits="userSpaceOnUse" id="gradient19" r="819.2" spreadMethod="pad">
      <stop offset="0.0" stop-color="#ffff00"/>
      <stop offset="1.0" stop-color="#808000"/>
    </radialGradient>
  </defs>
</svg>
