<?xml version="1.0" encoding="UTF-8" standalone="no"?>
<svg xmlns:ffdec="https://www.free-decompiler.com/flash" xmlns:xlink="http://www.w3.org/1999/xlink" ffdec:objectType="shape" height="28.0px" width="24.0px" xmlns="http://www.w3.org/2000/svg">
  <g transform="matrix(1.0, 0.0, 0.0, 1.0, -53.0, -33.0)">
    <path d="M67.25 49.0 Q68.0 49.85 68.0 50.95 L68.0 51.1 Q68.0 52.2 67.2 53.0 L67.1 53.1 67.0 53.2 66.15 53.8 67.0 58.0 63.0 58.0 63.85 53.8 63.0 53.25 62.85 53.1 62.75 53.0 Q62.0 52.2 62.0 51.1 L62.0 50.95 Q62.0 49.85 62.75 49.0 L62.85 48.85 63.0 48.75 Q63.85 48.0 64.95 48.0 L65.1 48.0 Q66.2 48.0 67.0 48.75 L67.1 48.85 67.25 49.0" fill="#333333" fill-rule="evenodd" stroke="none"/>
    <path d="M57.0 45.0 L57.0 33.0 73.0 33.0 73.0 45.0 77.0 45.0 77.0 61.0 53.0 61.0 53.0 45.0 57.0 45.0 M61.0 37.0 L61.0 45.0 69.0 45.0 69.0 37.0 61.0 37.0 M67.25 49.0 L67.1 48.85 67.0 48.75 Q66.2 48.0 65.1 48.0 L64.95 48.0 Q63.85 48.0 63.0 48.75 L62.85 48.85 62.75 49.0 Q62.0 49.85 62.0 50.95 L62.0 51.1 Q62.0 52.2 62.75 53.0 L62.85 53.1 63.0 53.25 63.85 53.8 63.0 58.0 67.0 58.0 66.15 53.8 67.0 53.2 67.1 53.1 67.2 53.0 Q68.0 52.2 68.0 51.1 L68.0 50.95 Q68.0 49.85 67.25 49.0" fill="url(#gradient0)" fill-rule="evenodd" stroke="none"/>
  </g>
  <defs>
    <linearGradient gradientTransform="matrix(0.0, 0.0165, -0.0171, 0.0, 65.0, 47.0)" gradientUnits="userSpaceOnUse" id="gradient0" spreadMethod="pad" x1="-819.2" x2="819.2">
      <stop offset="0.0" stop-color="#cccccc"/>
      <stop offset="0.3176470588235294" stop-color="#999999"/>
      <stop offset="0.6352941176470588" stop-color="#999999"/>
      <stop offset="1.0" stop-color="#333333"/>
    </linearGradient>
  </defs>
</svg>
